<svg width="500" height="358" viewBox="0 0 500 358" fill="none" xmlns="http://www.w3.org/2000/svg">
<g clip-path="url(#clip0)">
<path d="M245.222 0L108.083 74.4474C110.429 78.4936 111.939 82.9703 112.527 87.6125C113.113 92.2546 112.765 96.9674 111.501 101.472C110.238 105.977 108.084 110.181 105.17 113.837C102.255 117.492 98.6378 120.524 94.5326 122.753C90.4271 124.981 85.9172 126.361 81.2701 126.811C76.623 127.261 71.9329 126.771 67.478 125.371C63.023 123.971 58.894 121.688 55.3352 118.66C51.7765 115.631 48.8605 111.917 46.7602 107.738L-3.05176e-05 133.122L121.123 357.238L366.346 224.115L245.222 0Z" fill="#F2F2F2"/>
<path d="M71.4843 174.33L170.317 190.097L162.287 240.655L85.0744 228.337L81.961 247.942L75.6311 226.831L63.4547 224.888L71.4843 174.33Z" fill="#FF7A00"/>
<path d="M88.2593 194.991L147.971 204.517L148.79 199.358L89.0785 189.832L88.2593 194.991Z" fill="#F2F2F2"/>
<path d="M86.6206 205.309L146.332 214.835L147.151 209.676L87.4398 200.15L86.6206 205.309Z" fill="#F2F2F2"/>
<path d="M84.9817 215.627L144.693 225.153L145.513 219.994L85.8012 210.468L84.9817 215.627Z" fill="#F2F2F2"/>
<path d="M64.7142 246.912L156.569 207.097L176.846 254.085L105.085 285.191L112.947 303.41L96.3084 288.995L84.9916 293.901L64.7142 246.912Z" fill="#08A73E"/>
<path d="M89.9288 255.334L145.424 231.279L143.355 226.484L87.8596 250.539L89.9288 255.334Z" fill="#F2F2F2"/>
<path d="M94.0669 264.924L149.562 240.869L147.493 236.074L91.998 260.129L94.0669 264.924Z" fill="#F2F2F2"/>
<path d="M98.2035 274.513L153.699 250.458L151.63 245.663L96.1346 269.718L98.2035 274.513Z" fill="#F2F2F2"/>
<path d="M78.7878 154.97L170.642 115.155L190.919 162.144L119.158 193.249L127.02 211.469L110.382 197.053L99.0648 201.959L78.7878 154.97Z" fill="#08A73E"/>
<path d="M104.002 163.392L159.497 139.337L157.428 134.542L101.933 158.597L104.002 163.392Z" fill="#F2F2F2"/>
<path d="M108.14 172.982L163.635 148.927L161.567 144.132L106.071 168.187L108.14 172.982Z" fill="#F2F2F2"/>
<path d="M112.277 182.571L167.773 158.516L165.703 153.721L110.208 177.776L112.277 182.571Z" fill="#F2F2F2"/>
<path d="M85.791 41.2468L453.215 56.9837C453.215 56.9837 510.788 240.581 467.869 319.265L119.812 357.558C119.812 357.558 193.087 221.172 85.791 41.2468Z" fill="#322D2D"/>
<path d="M141.794 126.751L451.645 121.505" stroke="white" stroke-width="2" stroke-miterlimit="10"/>
<path d="M150.169 150.881L463.16 144.586" stroke="white" stroke-width="2" stroke-miterlimit="10"/>
<path d="M93.2311 54.1695L456.157 66.9599" stroke="#2F2E41" stroke-width="2" stroke-miterlimit="10"/>
<path opacity="0.2" d="M366.262 242.155C366.262 242.934 366.256 243.712 366.235 244.48V244.485C366.203 246.387 366.131 248.257 366.012 250.117C365.887 252.112 365.715 254.082 365.5 256.025C363.39 275.024 357.02 291.579 348.081 302.895C343.015 309.314 337.119 314.052 330.703 316.602C328.744 317.384 326.709 317.959 324.631 318.32C323.017 318.599 321.384 318.738 319.747 318.738C312.07 318.738 304.823 315.677 298.445 310.244C286.117 299.77 276.995 280.484 274.165 257.441V257.436C273.685 253.538 273.383 249.542 273.284 245.457C273.253 244.365 273.237 243.265 273.237 242.155C273.237 199.857 294.061 165.567 319.747 165.567C325.828 165.567 331.642 167.489 336.968 170.989C337.125 171.088 337.282 171.193 337.433 171.303C340.363 173.31 343.049 175.656 345.433 178.292C346.965 179.975 348.401 181.745 349.727 183.595C351.43 185.971 352.983 188.452 354.378 191.023C355.546 193.165 356.645 195.422 357.657 197.778V197.783C358.709 200.207 359.674 202.732 360.549 205.358V205.363C363.192 213.397 364.916 221.706 365.689 230.13C366.07 234.048 366.262 238.065 366.262 242.155Z" fill="black"/>
<path d="M114.291 47.2776C114.69 48.7759 114.211 50.5139 113.224 51.1581C112.24 51.8011 111.121 51.1116 110.724 49.6195C110.327 48.1273 110.8 46.3927 111.783 45.7436C112.769 45.0933 113.892 45.7793 114.291 47.2776Z" fill="#477BFF"/>
<path d="M122.653 47.1465C123.051 48.6448 122.573 50.3826 121.586 51.027C120.601 51.6698 119.483 50.9802 119.086 49.4881C118.689 47.9959 119.162 46.2613 120.145 45.6125C121.131 44.9619 122.254 45.6482 122.653 47.1465Z" fill="#477BFF"/>
<path d="M105.929 47.4087C106.328 48.907 105.849 50.6451 104.862 51.2893C103.878 51.9323 102.759 51.2428 102.362 49.7506C101.965 48.2584 102.439 46.5239 103.422 45.8747C104.407 45.2244 105.53 45.9105 105.929 47.4087Z" fill="#477BFF"/>
<path d="M366.962 197.996L369.669 206.064L372.596 206.291L369.962 186.177C370.942 173.473 365.651 162.265 352.974 161.285C348.724 160.956 344.517 162.333 341.282 165.112C338.044 167.892 336.041 171.847 335.712 176.106L334.218 195.517C334.058 197.575 334.724 199.611 336.061 201.179C337.401 202.746 339.308 203.716 341.36 203.874L364.087 205.633L366.962 197.996Z" fill="#2F2E41"/>
<path d="M369.82 243.95C369.82 243.95 372.224 250.494 376.349 251.528C380.474 252.561 411.061 259.795 411.061 259.795C411.061 259.795 437.869 260.484 429.622 266.34C421.372 272.195 407.968 266.34 407.968 266.34C407.968 266.34 368.788 261.517 365.695 256.35C363.657 252.834 361.933 249.146 360.541 245.328L369.82 243.95Z" fill="#FBBEBE"/>
<path d="M356.759 215.016C356.759 215.016 376.349 247.05 373.942 247.739C371.538 248.428 349.198 255.662 348.166 252.906C347.137 250.15 347.137 237.406 347.137 237.406L356.759 215.016Z" fill="#D0CDE1"/>
<path opacity="0.15" d="M24.6221 46.1105C24.6221 46.1105 44.2122 78.1448 41.8053 78.8337C39.4012 79.5224 17.061 86.7561 16.0291 84.0006C15 81.2448 15 68.5 15 68.5L24.6221 46.1105Z" fill="black"/>
<path d="M302.936 204.413L273.859 244.934C273.859 244.934 254.524 262.243 261.77 264.321C269.017 266.4 280.519 249.638 280.519 249.638L314.035 207.22L302.936 204.413Z" fill="#FBBEBE"/>
<path d="M362.602 189.526C362.602 189.526 354.009 202.615 354.698 205.715C354.698 205.715 354.009 207.782 355.041 209.16C356.073 210.538 355.727 218.805 355.727 218.805L352.291 223.627L347.823 208.815L345.762 192.971C345.762 192.971 350.401 186.598 349.712 183.498C349.026 180.398 362.602 189.526 362.602 189.526Z" fill="#FBBEBE"/>
<path d="M348.081 302.895C343.015 309.314 337.119 314.052 330.704 316.602C328.744 317.384 326.709 317.959 324.631 318.32C325.73 293.866 326.997 272.057 327.89 270.13C329.954 265.653 335.451 263.929 335.451 263.929C335.451 263.929 335.994 265.386 336.901 267.92C339.25 274.523 344.058 288.44 348.081 302.895Z" fill="#D0CDE1"/>
<path opacity="0.15" d="M26.4506 230.967C21.3837 237.385 15.4884 242.124 9.07269 244.673C7.11339 245.455 5.07849 246.031 3 246.391C4.09884 221.938 5.36629 200.128 6.25873 198.201C8.32268 193.724 13.8198 192 13.8198 192C13.8198 192 14.3634 193.458 15.2704 195.991C17.6192 202.594 22.4273 216.511 26.4506 230.967Z" fill="black"/>
<path d="M358.134 191.593C365.157 191.593 370.849 185.887 370.849 178.848C370.849 171.809 365.157 166.103 358.134 166.103C351.11 166.103 345.416 171.809 345.416 178.848C345.416 185.887 351.11 191.593 358.134 191.593Z" fill="#FBBEBE"/>
<path d="M352.637 237.751C350.259 240.019 348.515 241.69 347.233 242.965C344.625 245.546 343.927 246.47 343.698 247.395C343.355 248.774 341.64 248.774 341.64 248.774L336.901 267.92L331.669 289.072C331.669 289.072 331.328 300.826 330.703 316.602C328.744 317.384 326.709 317.959 324.631 318.32C323.017 318.599 321.384 318.738 319.747 318.738C312.07 318.738 304.823 315.677 298.445 310.244C298.532 290.07 298.328 269.44 298.328 269.44C298.328 269.44 292.831 260.486 311.735 242.918C311.735 242.918 314.718 234.205 317.802 225.454C320.904 216.636 324.11 207.782 324.453 207.782C324.683 207.782 326.326 205.676 328.41 202.871C330.238 200.416 332.413 197.417 334.267 194.821C336.66 191.499 338.544 188.84 338.544 188.84C338.544 188.84 344.186 188.84 346.605 191.729C347.003 192.192 347.302 192.732 347.483 193.317C348.067 195.223 349.401 199.878 350.738 204.6C352.538 210.958 354.352 217.425 354.352 217.425L355.273 209.652C355.273 209.652 358.137 213.638 358.137 216.735C358.137 216.903 358.14 217.091 358.145 217.305C358.297 221.019 359.459 231.232 352.637 237.751Z" fill="#D0CDE1"/>
<path d="M342.669 191.593L338.544 188.837C338.544 188.837 321.358 199.171 309.328 199.86C297.299 200.549 297.645 207.438 302.456 212.26C307.267 217.083 326.172 233.616 326.858 229.483C327.547 225.349 342.669 191.593 342.669 191.593Z" fill="#D0CDE1"/>
<path d="M365.326 162.941C362.561 162.006 355.872 161.509 354.895 161.433C352.538 161.251 350.169 161.536 347.921 162.271C345.674 163.007 343.596 164.178 341.799 165.72C340.006 167.261 338.529 169.141 337.459 171.254C336.39 173.366 335.747 175.669 335.564 178.031L326.863 202.753L340.015 203.77L343.177 194.584L345.919 204.227L352.541 204.739L353.544 199.149L355.349 204.956L362.724 205.527C358.166 192.576 356.108 180.934 363.904 174.45C368.753 175.497 372.985 174.502 373.863 171.892C374.875 168.885 371.052 164.877 365.326 162.941Z" fill="#2F2E41"/>
<path d="M399.924 192.219H500V243.415H421.814V263.266L412.253 243.415H399.924V192.219Z" fill="#FF7A00"/>
<path d="M419.73 209.981H480.192V204.757H419.73V209.981Z" fill="#F2F2F2"/>
<path d="M419.73 220.429H480.192V215.205H419.73V220.429Z" fill="#F2F2F2"/>
<path d="M419.73 230.877H480.192V225.653H419.73V230.877Z" fill="#F2F2F2"/>
<path d="M324.067 88.0696C323.964 87.9867 323.824 88.0021 323.741 88.1056L320.931 91.5992C320.872 91.594 320.798 91.5668 320.701 91.5421C320.627 91.5149 320.54 91.4773 320.464 91.4267L323.376 87.7921C323.459 87.6886 323.444 87.5489 323.34 87.4659C323.237 87.383 323.097 87.3985 323.014 87.5019L320.059 91.1766C319.996 91.1365 319.931 91.0846 319.866 91.0328C319.802 90.981 319.737 90.9292 319.684 90.8761L322.627 87.2027C322.71 87.0992 322.695 86.9594 322.591 86.8765C322.488 86.7936 322.348 86.809 322.265 86.9125L319.365 90.5458C319.229 90.3839 319.129 90.2298 319.094 90.1276L321.903 86.6223C321.986 86.5188 321.97 86.379 321.867 86.2961C321.763 86.2132 321.624 86.2286 321.541 86.3321L318.648 89.9292C318.368 90.2784 318.25 90.7041 318.298 91.1352C318.318 91.3215 318.372 91.4924 318.449 91.6491L310.742 100.989C310.431 101.377 310.484 101.961 310.883 102.27C311.066 102.427 311.308 102.483 311.541 102.457C311.774 102.432 311.996 102.313 312.164 102.117L319.429 92.5196C319.649 92.5896 319.888 92.6222 320.121 92.5965C320.541 92.5502 320.942 92.3408 321.222 91.9916L324.103 88.3958C324.186 88.2923 324.171 88.1525 324.067 88.0696Z" fill="#FA6E26"/>
<path d="M309.183 88.1195C309.105 88.2265 309.126 88.3655 309.233 88.4437L312.848 91.0962C312.845 91.1559 312.822 91.2308 312.801 91.3288C312.777 91.4037 312.744 91.492 312.696 91.5705L308.936 88.822C308.829 88.7437 308.69 88.7653 308.612 88.8724C308.534 88.9794 308.556 89.1184 308.663 89.1966L312.464 91.986C312.427 92.0512 312.378 92.1181 312.329 92.185C312.28 92.2519 312.232 92.3188 312.181 92.3741L308.381 89.5963C308.274 89.518 308.135 89.5396 308.056 89.6467C307.978 89.7537 308 89.8927 308.107 89.9709L311.865 92.7078C311.709 92.8506 311.56 92.9569 311.459 92.9962L307.833 90.3456C307.726 90.2673 307.587 90.2889 307.509 90.396C307.43 90.503 307.452 90.642 307.559 90.7202L311.281 93.451C311.642 93.715 312.073 93.8142 312.501 93.7476C312.686 93.7188 312.855 93.6571 313.008 93.574L322.68 100.86C323.081 101.153 323.662 101.075 323.954 100.662C324.102 100.472 324.147 100.228 324.111 99.9966C324.075 99.765 323.946 99.5477 323.744 99.3894L313.834 92.556C313.894 92.3332 313.916 92.0925 313.88 91.8609C313.815 91.444 313.588 91.0523 313.227 90.7882L309.507 88.0691C309.4 87.9908 309.261 88.0124 309.183 88.1195Z" fill="#0FDB48"/>
</g>
<defs>
<clipPath id="clip0">
<rect width="500" height="357.558" fill="white"/>
</clipPath>
</defs>
</svg>
